<?xml version="1.0" encoding="utf-8"?>
<!-- Generator: Adobe Illustrator 22.1.0, SVG Export Plug-In . SVG Version: 6.00 Build 0)  -->
<svg version="1.1" id="Capa_1" xmlns="http://www.w3.org/2000/svg" xmlns:xlink="http://www.w3.org/1999/xlink" x="0px" y="0px"
	 viewBox="0 0 400 225" style="enable-background:new 0 0 400 225;" xml:space="preserve">
<style type="text/css">
	.st0{fill:url(#SVGID_1_);}
	.st1{fill:url(#SVGID_2_);}
	.st2{fill:url(#SVGID_3_);}
	.st3{fill:url(#SVGID_4_);}
	.st4{fill:url(#SVGID_5_);}
	.st5{fill:url(#SVGID_6_);}
	.st6{fill:url(#SVGID_7_);}
	.st7{fill:url(#SVGID_8_);}
	.st8{fill:url(#SVGID_9_);}
	.st9{fill:url(#SVGID_10_);}
	.st10{fill:url(#SVGID_11_);}
	.st11{fill:url(#SVGID_12_);}
	.st12{fill:url(#SVGID_13_);}
	.st13{fill:url(#SVGID_14_);}
	.st14{fill:url(#SVGID_15_);}
	.st15{fill:url(#SVGID_16_);}
	.st16{fill:url(#SVGID_17_);}
	.st17{fill:url(#SVGID_18_);}
	.st18{fill:url(#SVGID_19_);}
	.st19{fill:url(#SVGID_20_);}
	.st20{fill:url(#SVGID_21_);}
	.st21{fill:url(#SVGID_22_);}
	.st22{fill:url(#SVGID_23_);}
	.st23{fill:url(#SVGID_24_);}
	.st24{fill:url(#SVGID_25_);}
	.st25{fill:url(#SVGID_26_);}
	.st26{fill:url(#SVGID_27_);}
	.st27{fill:url(#SVGID_28_);}
	.st28{fill:url(#SVGID_29_);}
	.st29{fill:url(#SVGID_30_);}
	.st30{fill:url(#SVGID_31_);}
	.st31{fill:url(#SVGID_32_);}
	.st32{fill:url(#SVGID_33_);}
	.st33{fill:url(#SVGID_34_);}
	.st34{opacity:0.5;fill:url(#SVGID_35_);enable-background:new    ;}
	.st35{fill:url(#SVGID_36_);}
	.st36{opacity:0.5;fill:url(#SVGID_37_);enable-background:new    ;}
	.st37{fill:url(#SVGID_38_);}
	.st38{opacity:0.5;fill:url(#SVGID_39_);enable-background:new    ;}
	.st39{fill:url(#SVGID_40_);}
	.st40{opacity:0.5;fill:url(#SVGID_41_);enable-background:new    ;}
	.st41{fill:url(#SVGID_42_);}
	.st42{opacity:0.5;fill:url(#SVGID_43_);enable-background:new    ;}
	.st43{fill:url(#SVGID_44_);}
	.st44{fill:#40609D;}
	.st45{fill:#EAEAEA;}
	.st46{fill:#648AAE;}
	.st47{font-family:'OpenSans-Light';}
	.st48{font-size:10.95px;}
</style>
<title>Recurso 4</title>
<g>
	<g id="Capa_2_1_">
		<g id="Contenido">
			<g id="Cards">
				
					<linearGradient id="SVGID_1_" gradientUnits="userSpaceOnUse" x1="-15.825" y1="105.055" x2="342.665" y2="105.055" gradientTransform="matrix(1 0 0 -1 0 226.17)">
					<stop  offset="0" style="stop-color:#5999F5"/>
					<stop  offset="1" style="stop-color:#87F0C6"/>
				</linearGradient>
				<path class="st0" d="M192.3,104.2c-0.3,10.2-8.7,18.3-18.9,18.3c-0.2,0-0.4,0-0.6,0V138h0.6c10.3,0,20.1-4.6,26.7-12.6
					C195.2,119.4,192.4,111.9,192.3,104.2z"/>
				
					<linearGradient id="SVGID_2_" gradientUnits="userSpaceOnUse" x1="-15.825" y1="105.05" x2="342.665" y2="105.05" gradientTransform="matrix(1 0 0 -1 0 226.17)">
					<stop  offset="0" style="stop-color:#5999F5"/>
					<stop  offset="1" style="stop-color:#87F0C6"/>
				</linearGradient>
				<path class="st1" d="M138.9,104.2c-0.3,10.2-8.7,18.3-18.9,18.3h-0.4V138h0.4c10.3,0,20.1-4.6,26.7-12.6
					C141.8,119.4,139,111.9,138.9,104.2z"/>
				
					<linearGradient id="SVGID_3_" gradientUnits="userSpaceOnUse" x1="101.035" y1="122.28" x2="101.035" y2="122.28" gradientTransform="matrix(1 0 0 -1 0 226.17)">
					<stop  offset="0" style="stop-color:#5999F5"/>
					<stop  offset="1" style="stop-color:#87F0C6"/>
				</linearGradient>
				<path class="st2" d="M101,103.6c0,0.2,0,0.4,0,0.6C101,104,101,103.8,101,103.6z"/>
				
					<linearGradient id="SVGID_4_" gradientUnits="userSpaceOnUse" x1="-15.985" y1="122.935" x2="251.6576" y2="122.935" gradientTransform="matrix(1 0 0 -1 0 226.17)">
					<stop  offset="0" style="stop-color:#5999F5"/>
					<stop  offset="1" style="stop-color:#87F0C6"/>
				</linearGradient>
				<path class="st3" d="M101.1,102.9c0,0.2,0,0.4,0,0.7l0,0C101.1,103.3,101.1,103.1,101.1,102.9z"/>
				
					<linearGradient id="SVGID_5_" gradientUnits="userSpaceOnUse" x1="-15.825" y1="105.3917" x2="342.665" y2="105.3917" gradientTransform="matrix(1 0 0 -1 0 226.17)">
					<stop  offset="0" style="stop-color:#5999F5"/>
					<stop  offset="1" style="stop-color:#87F0C6"/>
				</linearGradient>
				<path class="st4" d="M66.6,122.5c-10.5,0-19-8.5-19-19H32.1c0,19,15.4,34.5,34.4,34.5c10.4,0,20.2-4.6,26.7-12.7
					c-4.9-6-7.6-13.4-7.8-21.2C85.2,114.4,76.8,122.5,66.6,122.5z"/>
				
					<linearGradient id="SVGID_6_" gradientUnits="userSpaceOnUse" x1="154.415" y1="122.28" x2="154.415" y2="122.28" gradientTransform="matrix(1 0 0 -1 0 226.17)">
					<stop  offset="0" style="stop-color:#5999F5"/>
					<stop  offset="1" style="stop-color:#87F0C6"/>
				</linearGradient>
				<path class="st5" d="M154.4,103.6c0,0.2,0,0.4,0,0.6C154.4,104,154.4,103.8,154.4,103.6z"/>
				
					<linearGradient id="SVGID_7_" gradientUnits="userSpaceOnUse" x1="108.2471" y1="122.935" x2="200.6429" y2="122.935" gradientTransform="matrix(1 0 0 -1 0 226.17)">
					<stop  offset="0" style="stop-color:#5999F5"/>
					<stop  offset="1" style="stop-color:#87F0C6"/>
				</linearGradient>
				<path class="st6" d="M154.4,102.9c0,0.2,0,0.4,0,0.7l0,0C154.5,103.3,154.5,103.1,154.4,102.9z"/>
				
					<linearGradient id="SVGID_8_" gradientUnits="userSpaceOnUse" x1="67.7402" y1="122.935" x2="103.2898" y2="122.935" gradientTransform="matrix(1 0 0 -1 0 226.17)">
					<stop  offset="0" style="stop-color:#5999F5"/>
					<stop  offset="1" style="stop-color:#87F0C6"/>
				</linearGradient>
				<path class="st7" d="M85.5,103.6L85.5,103.6c0-0.2,0-0.4,0-0.7C85.5,103.1,85.5,103.3,85.5,103.6z"/>
				
					<linearGradient id="SVGID_9_" gradientUnits="userSpaceOnUse" x1="67.7458" y1="122.28" x2="103.2953" y2="122.28" gradientTransform="matrix(1 0 0 -1 0 226.17)">
					<stop  offset="0" style="stop-color:#5999F5"/>
					<stop  offset="1" style="stop-color:#87F0C6"/>
				</linearGradient>
				<path class="st8" d="M85.5,104.2c0-0.2,0-0.4,0-0.6l0,0C85.5,103.8,85.5,104,85.5,104.2z"/>
				
					<linearGradient id="SVGID_10_" gradientUnits="userSpaceOnUse" x1="-15.825" y1="111.695" x2="342.665" y2="111.695" gradientTransform="matrix(1 0 0 -1 0 226.17)">
					<stop  offset="0" style="stop-color:#5999F5"/>
					<stop  offset="1" style="stop-color:#87F0C6"/>
				</linearGradient>
				<path class="st9" d="M101,103.6H85.6c0,0.2,0,0.4,0,0.6c0.1,7.7,2.8,15.2,7.7,21.2c4.9-6,7.6-13.4,7.8-21.2
					C101.1,104,101,103.8,101,103.6z"/>
				
					<linearGradient id="SVGID_11_" gradientUnits="userSpaceOnUse" x1="-15.825" y1="133.515" x2="342.665" y2="133.515" gradientTransform="matrix(1 0 0 -1 0 226.17)">
					<stop  offset="0" style="stop-color:#5999F5"/>
					<stop  offset="1" style="stop-color:#87F0C6"/>
				</linearGradient>
				<path class="st10" d="M85.6,103.6H101c0-0.2,0-0.4,0-0.7c-0.1-7.7-2.9-15.2-7.8-21.2c-4.9,6-7.6,13.4-7.8,21.2
					C85.5,103.1,85.6,103.3,85.6,103.6z"/>
				
					<linearGradient id="SVGID_12_" gradientUnits="userSpaceOnUse" x1="-16.135" y1="122.935" x2="342.855" y2="122.935" gradientTransform="matrix(1 0 0 -1 0 226.17)">
					<stop  offset="0" style="stop-color:#5999F5"/>
					<stop  offset="1" style="stop-color:#87F0C6"/>
				</linearGradient>
				<path class="st11" d="M207.8,102.9c0,0.2,0,0.4,0,0.7h0.1C207.8,103.3,207.8,103.1,207.8,102.9z"/>
				
					<linearGradient id="SVGID_13_" gradientUnits="userSpaceOnUse" x1="121.127" y1="122.935" x2="156.663" y2="122.935" gradientTransform="matrix(1 0 0 -1 0 226.17)">
					<stop  offset="0" style="stop-color:#5999F5"/>
					<stop  offset="1" style="stop-color:#87F0C6"/>
				</linearGradient>
				<path class="st12" d="M138.9,103.6L138.9,103.6c0-0.2,0-0.4,0-0.7C138.9,103.1,138.9,103.3,138.9,103.6z"/>
				
					<linearGradient id="SVGID_14_" gradientUnits="userSpaceOnUse" x1="207.795" y1="122.28" x2="207.795" y2="122.28" gradientTransform="matrix(1 0 0 -1 0 226.17)">
					<stop  offset="0" style="stop-color:#5999F5"/>
					<stop  offset="1" style="stop-color:#87F0C6"/>
				</linearGradient>
				<path class="st13" d="M207.8,103.6c0,0.2,0,0.4,0,0.6C207.8,104,207.8,103.8,207.8,103.6z"/>
				
					<linearGradient id="SVGID_15_" gradientUnits="userSpaceOnUse" x1="121.1325" y1="122.28" x2="156.6686" y2="122.28" gradientTransform="matrix(1 0 0 -1 0 226.17)">
					<stop  offset="0" style="stop-color:#5999F5"/>
					<stop  offset="1" style="stop-color:#87F0C6"/>
				</linearGradient>
				<path class="st14" d="M138.9,104.2c0-0.2,0-0.4,0-0.6l0,0C138.9,103.8,138.9,104,138.9,104.2z"/>
				
					<linearGradient id="SVGID_16_" gradientUnits="userSpaceOnUse" x1="-15.515" y1="122.28" x2="342.445" y2="122.28" gradientTransform="matrix(1 0 0 -1 0 226.17)">
					<stop  offset="0" style="stop-color:#5999F5"/>
					<stop  offset="1" style="stop-color:#87F0C6"/>
				</linearGradient>
				<path class="st15" d="M192.3,104.2c0-0.2,0-0.4,0-0.6h-0.1C192.3,103.8,192.3,104,192.3,104.2z"/>
				
					<linearGradient id="SVGID_17_" gradientUnits="userSpaceOnUse" x1="-15.815" y1="121.635" x2="342.665" y2="121.635" gradientTransform="matrix(1 0 0 -1 0 226.17)">
					<stop  offset="0" style="stop-color:#5999F5"/>
					<stop  offset="1" style="stop-color:#87F0C6"/>
				</linearGradient>
				<path class="st16" d="M261.1,103.6c0,0.6,0,1.3,0.1,1.9c0-0.6,0.1-1.3,0.1-1.9H261.1z"/>
				
					<linearGradient id="SVGID_18_" gradientUnits="userSpaceOnUse" x1="-15.815" y1="123.58" x2="342.665" y2="123.58" gradientTransform="matrix(1 0 0 -1 0 226.17)">
					<stop  offset="0" style="stop-color:#5999F5"/>
					<stop  offset="1" style="stop-color:#87F0C6"/>
				</linearGradient>
				<path class="st17" d="M261.1,101.6c-0.1,0.6-0.1,1.3-0.1,2h0.2C261.2,102.9,261.2,102.3,261.1,101.6z"/>
				
					<linearGradient id="SVGID_19_" gradientUnits="userSpaceOnUse" x1="-15.515" y1="122.935" x2="342.445" y2="122.935" gradientTransform="matrix(1 0 0 -1 0 226.17)">
					<stop  offset="0" style="stop-color:#5999F5"/>
					<stop  offset="1" style="stop-color:#87F0C6"/>
				</linearGradient>
				<path class="st18" d="M192.3,103.6L192.3,103.6c0.1-0.2,0.1-0.4,0.1-0.7C192.3,103.1,192.3,103.3,192.3,103.6z"/>
				
					<linearGradient id="SVGID_20_" gradientUnits="userSpaceOnUse" x1="-15.825" y1="133.515" x2="342.665" y2="133.515" gradientTransform="matrix(1 0 0 -1 0 226.17)">
					<stop  offset="0" style="stop-color:#5999F5"/>
					<stop  offset="1" style="stop-color:#87F0C6"/>
				</linearGradient>
				<path class="st19" d="M192.3,103.6h15.5c0-0.2,0-0.4,0-0.7c-0.1-7.7-2.9-15.2-7.8-21.2c-4.9,6-7.6,13.4-7.8,21.2
					C192.3,103.1,192.3,103.3,192.3,103.6z"/>
				
					<linearGradient id="SVGID_21_" gradientUnits="userSpaceOnUse" x1="-15.825" y1="111.695" x2="342.665" y2="111.695" gradientTransform="matrix(1 0 0 -1 0 226.17)">
					<stop  offset="0" style="stop-color:#5999F5"/>
					<stop  offset="1" style="stop-color:#87F0C6"/>
				</linearGradient>
				<path class="st20" d="M207.8,103.6h-15.5c0,0.2,0,0.4,0,0.6c0.1,7.7,2.9,15.2,7.8,21.2c4.9-6,7.6-13.4,7.8-21.2
					C207.8,104,207.8,103.8,207.8,103.6z"/>
				
					<linearGradient id="SVGID_22_" gradientUnits="userSpaceOnUse" x1="314.495" y1="122.935" x2="314.495" y2="122.935" gradientTransform="matrix(1 0 0 -1 0 226.17)">
					<stop  offset="0" style="stop-color:#5999F5"/>
					<stop  offset="1" style="stop-color:#87F0C6"/>
				</linearGradient>
				<path class="st21" d="M314.5,103.6c0-0.2,0-0.4,0-0.7C314.5,103.1,314.5,103.3,314.5,103.6z"/>
				
					<linearGradient id="SVGID_23_" gradientUnits="userSpaceOnUse" x1="-15.815" y1="121.635" x2="342.665" y2="121.635" gradientTransform="matrix(1 0 0 -1 0 226.17)">
					<stop  offset="0" style="stop-color:#5999F5"/>
					<stop  offset="1" style="stop-color:#87F0C6"/>
				</linearGradient>
				<path class="st22" d="M245.6,105.5c0.1-0.6,0.1-1.3,0.1-1.9h-0.1C245.5,104.2,245.6,104.9,245.6,105.5z"/>
				
					<linearGradient id="SVGID_24_" gradientUnits="userSpaceOnUse" x1="-15.815" y1="123.58" x2="342.665" y2="123.58" gradientTransform="matrix(1 0 0 -1 0 226.17)">
					<stop  offset="0" style="stop-color:#5999F5"/>
					<stop  offset="1" style="stop-color:#87F0C6"/>
				</linearGradient>
				<path class="st23" d="M245.5,103.6h0.1c0-0.7,0-1.3-0.1-2C245.6,102.3,245.5,102.9,245.5,103.6z"/>
				
					<linearGradient id="SVGID_25_" gradientUnits="userSpaceOnUse" x1="314.445" y1="122.28" x2="314.445" y2="122.28" gradientTransform="matrix(1 0 0 -1 0 226.17)">
					<stop  offset="0" style="stop-color:#5999F5"/>
					<stop  offset="1" style="stop-color:#87F0C6"/>
				</linearGradient>
				<path class="st24" d="M314.4,103.6c0,0.2,0,0.4,0,0.6C314.4,104,314.4,103.8,314.4,103.6z"/>
				
					<linearGradient id="SVGID_26_" gradientUnits="userSpaceOnUse" x1="-15.825" y1="133.55" x2="342.665" y2="133.55" gradientTransform="matrix(1 0 0 -1 0 226.17)">
					<stop  offset="0" style="stop-color:#5999F5"/>
					<stop  offset="1" style="stop-color:#87F0C6"/>
				</linearGradient>
				<path class="st25" d="M245.7,103.6h15.4c0-0.7,0-1.3,0.1-2c-0.4-7.3-3.1-14.3-7.8-19.9c-4.7,5.6-7.4,12.6-7.8,19.9
					C245.7,102.3,245.7,102.9,245.7,103.6z"/>
				
					<linearGradient id="SVGID_27_" gradientUnits="userSpaceOnUse" x1="-15.825" y1="111.665" x2="342.665" y2="111.665" gradientTransform="matrix(1 0 0 -1 0 226.17)">
					<stop  offset="0" style="stop-color:#5999F5"/>
					<stop  offset="1" style="stop-color:#87F0C6"/>
				</linearGradient>
				<path class="st26" d="M261.1,103.6h-15.4c0,0.6,0,1.3-0.1,1.9c0.4,7.3,3.1,14.3,7.8,19.9c4.6-5.7,7.4-12.6,7.8-19.9
					C261.1,104.9,261.1,104.2,261.1,103.6z"/>
				
					<linearGradient id="SVGID_28_" gradientUnits="userSpaceOnUse" x1="-15.825" y1="139.845" x2="342.665" y2="139.845" gradientTransform="matrix(1 0 0 -1 0 226.17)">
					<stop  offset="0" style="stop-color:#5999F5"/>
					<stop  offset="1" style="stop-color:#87F0C6"/>
				</linearGradient>
				<path class="st27" d="M333.4,69.1c-10.3,0-20.2,4.6-26.7,12.7c4.9,6,7.6,13.4,7.8,21.2c0.3-10.5,9.1-18.7,19.5-18.3
					c10.2,0.3,18.4,8.7,18.3,19h15.5C367.9,84.5,352.4,69.1,333.4,69.1z"/>
				
					<linearGradient id="SVGID_29_" gradientUnits="userSpaceOnUse" x1="-16.185" y1="122.935" x2="342.715" y2="122.935" gradientTransform="matrix(1 0 0 -1 0 226.17)">
					<stop  offset="0" style="stop-color:#5999F5"/>
					<stop  offset="1" style="stop-color:#87F0C6"/>
				</linearGradient>
				<path class="st28" d="M298.9,103.6L298.9,103.6c0-0.2,0-0.4,0-0.7C298.9,103.1,298.9,103.3,298.9,103.6z"/>
				
					<linearGradient id="SVGID_30_" gradientUnits="userSpaceOnUse" x1="-16.185" y1="122.28" x2="342.715" y2="122.28" gradientTransform="matrix(1 0 0 -1 0 226.17)">
					<stop  offset="0" style="stop-color:#5999F5"/>
					<stop  offset="1" style="stop-color:#87F0C6"/>
				</linearGradient>
				<path class="st29" d="M298.9,104.2c0-0.2,0-0.4,0-0.6h0C298.9,103.8,298.9,104,298.9,104.2z"/>
				
					<linearGradient id="SVGID_31_" gradientUnits="userSpaceOnUse" x1="-15.825" y1="111.695" x2="342.665" y2="111.695" gradientTransform="matrix(1 0 0 -1 0 226.17)">
					<stop  offset="0" style="stop-color:#5999F5"/>
					<stop  offset="1" style="stop-color:#87F0C6"/>
				</linearGradient>
				<path class="st30" d="M314.4,103.6H299c0,0.2,0,0.4,0,0.6c0.1,7.7,2.9,15.2,7.8,21.2c4.9-6,7.6-13.4,7.8-21.2
					C314.5,104,314.4,103.8,314.4,103.6z"/>
				
					<linearGradient id="SVGID_32_" gradientUnits="userSpaceOnUse" x1="-15.825" y1="133.515" x2="342.665" y2="133.515" gradientTransform="matrix(1 0 0 -1 0 226.17)">
					<stop  offset="0" style="stop-color:#5999F5"/>
					<stop  offset="1" style="stop-color:#87F0C6"/>
				</linearGradient>
				<path class="st31" d="M299,103.6h15.5c0-0.2,0-0.4,0-0.7c-0.1-7.7-2.9-15.2-7.8-21.2c-4.9,6-7.6,13.4-7.8,21.2
					C298.9,103.1,299,103.3,299,103.6z"/>
				
					<linearGradient id="SVGID_33_" gradientUnits="userSpaceOnUse" x1="-15.825" y1="104.375" x2="342.665" y2="104.375" gradientTransform="matrix(1 0 0 -1 0 226.17)">
					<stop  offset="0" style="stop-color:#5999F5"/>
					<stop  offset="1" style="stop-color:#87F0C6"/>
				</linearGradient>
				<path class="st32" d="M245.6,105.5c-1,9.6-9.1,17-18.9,17h-0.2v15.6h0.2c10.3,0,20.1-4.6,26.6-12.6
					C248.7,119.8,246,112.8,245.6,105.5z"/>
				
					<linearGradient id="SVGID_34_" gradientUnits="userSpaceOnUse" x1="-15.825" y1="105.02" x2="342.665" y2="105.02" gradientTransform="matrix(1 0 0 -1 0 226.17)">
					<stop  offset="0" style="stop-color:#5999F5"/>
					<stop  offset="1" style="stop-color:#87F0C6"/>
				</linearGradient>
				<path class="st33" d="M298.9,104.2c-0.3,10.2-8.7,18.3-18.9,18.3v15.6c10.4,0,20.2-4.7,26.7-12.7
					C301.8,119.4,299.1,111.9,298.9,104.2z"/>
				
					<radialGradient id="SVGID_35_" cx="306.851" cy="134.867" r="12.5728" gradientTransform="matrix(1 0 0 -1 -9.459733e-03 226.1717)" gradientUnits="userSpaceOnUse">
					<stop  offset="0" style="stop-color:#000000"/>
					<stop  offset="1" style="stop-color:#FFFFFF"/>
				</radialGradient>
				<circle class="st34" cx="306.8" cy="91.3" r="12.6"/>
				
					<linearGradient id="SVGID_36_" gradientUnits="userSpaceOnUse" x1="-15.825" y1="122.6952" x2="342.665" y2="122.6952" gradientTransform="matrix(1 0 0 -1 0 226.17)">
					<stop  offset="0" style="stop-color:#5999F5"/>
					<stop  offset="1" style="stop-color:#87F0C6"/>
				</linearGradient>
				<path class="st35" d="M352.3,103.6c0,10.5-8.4,19-18.9,19c-10.2,0-18.6-8.1-19-18.3c0-0.2,0-0.4,0-0.6s0-0.4,0-0.7
					c-0.3-19-16.1-34.2-35.1-33.8c-10.1,0.2-19.6,4.8-26,12.6c4.6,5.7,7.4,12.6,7.8,19.9c1.1-10.4,10.4-18,20.8-16.9
					c9.4,1,16.7,8.7,17,18.2c0,0.2,0,0.4,0,0.7s0,0.4,0,0.6c0.4,19,16.2,34.1,35.3,33.6c18.7-0.4,33.6-15.6,33.7-34.3H352.3z"/>
				
					<radialGradient id="SVGID_37_" cx="254.2877" cy="135.3399" r="12.5728" gradientTransform="matrix(1 0 0 -1 -8.743993e-03 226.176)" gradientUnits="userSpaceOnUse">
					<stop  offset="0" style="stop-color:#000000"/>
					<stop  offset="1" style="stop-color:#FFFFFF"/>
				</radialGradient>
				<circle class="st36" cx="254.3" cy="90.8" r="12.6"/>
				
					<linearGradient id="SVGID_38_" gradientUnits="userSpaceOnUse" x1="-15.825" y1="122.5865" x2="342.665" y2="122.5865" gradientTransform="matrix(1 0 0 -1 0 226.17)">
					<stop  offset="0" style="stop-color:#5999F5"/>
					<stop  offset="1" style="stop-color:#87F0C6"/>
				</linearGradient>
				<path class="st37" d="M261.1,105.5c-0.1-1.3-0.1-2.6,0-3.9c-1.1-19-17.3-33.5-36.4-32.5c-9.7,0.5-18.6,5.1-24.8,12.6
					c4.9,6,7.6,13.4,7.8,21.2c0.4-10.5,9.1-18.6,19.6-18.3c9.5,0.3,17.2,7.6,18.2,17c0.1,1.3,0.1,2.6,0,3.9
					c1,18.3,16.1,32.6,34.5,32.6v-15.6C270.3,122.5,262.2,115.2,261.1,105.5z"/>
				
					<radialGradient id="SVGID_39_" cx="201.265" cy="134.895" r="12.57" gradientTransform="matrix(1 0 0 -1 0 226.17)" gradientUnits="userSpaceOnUse">
					<stop  offset="0" style="stop-color:#000000"/>
					<stop  offset="1" style="stop-color:#FFFFFF"/>
				</radialGradient>
				<circle class="st38" cx="201.3" cy="91.3" r="12.6"/>
				
					<linearGradient id="SVGID_40_" gradientUnits="userSpaceOnUse" x1="-15.825" y1="122.5811" x2="342.665" y2="122.5811" gradientTransform="matrix(1 0 0 -1 0 226.17)">
					<stop  offset="0" style="stop-color:#5999F5"/>
					<stop  offset="1" style="stop-color:#87F0C6"/>
				</linearGradient>
				<path class="st39" d="M207.8,104.2c0-0.2,0-0.4,0-0.6s0-0.4,0-0.7c-0.4-19-16.1-34.2-35.1-33.8c-10.1,0.2-19.6,4.8-26,12.6
					c4.9,6,7.6,13.4,7.8,21.2c0.3-10.4,9.1-18.6,19.5-18.3c10,0.3,18,8.3,18.3,18.3c0,0.2,0,0.4,0,0.7s0,0.4,0,0.6
					c0.3,18.7,15.6,33.8,34.3,33.9v-15.6C216.4,122.4,208.2,114.4,207.8,104.2z"/>
				
					<radialGradient id="SVGID_41_" cx="147.2476" cy="135.8035" r="12.572" gradientTransform="matrix(1 0 0 -1 -1.975260e-03 226.1682)" gradientUnits="userSpaceOnUse">
					<stop  offset="0" style="stop-color:#000000"/>
					<stop  offset="1" style="stop-color:#FFFFFF"/>
				</radialGradient>
				<circle class="st40" cx="147.2" cy="90.4" r="12.6"/>
				
					<linearGradient id="SVGID_42_" gradientUnits="userSpaceOnUse" x1="-15.825" y1="122.6161" x2="342.665" y2="122.6161" gradientTransform="matrix(1 0 0 -1 0 226.17)">
					<stop  offset="0" style="stop-color:#5999F5"/>
					<stop  offset="1" style="stop-color:#87F0C6"/>
				</linearGradient>
				<path class="st41" d="M154.4,104.2c0-0.2,0-0.4,0-0.6s0-0.4,0-0.7c-0.4-19-16.1-34.2-35.1-33.8c-10.1,0.2-19.6,4.8-26,12.6
					c4.9,6,7.6,13.4,7.8,21.2c0.3-10.4,9.1-18.6,19.5-18.3c10,0.3,18,8.3,18.3,18.3c0,0.2,0,0.4,0,0.7c0,0.2,0,0.4,0,0.6
					c0.3,18.5,15.3,33.5,33.8,33.8v-15.5C162.8,122.1,154.8,114.2,154.4,104.2z"/>
				
					<radialGradient id="SVGID_43_" cx="95.1382" cy="135.3485" r="12.57" gradientTransform="matrix(1 0 0 -1 -2.986021e-03 226.1683)" gradientUnits="userSpaceOnUse">
					<stop  offset="0" style="stop-color:#000000"/>
					<stop  offset="1" style="stop-color:#FFFFFF"/>
				</radialGradient>
				<circle class="st42" cx="95.1" cy="90.8" r="12.6"/>
				
					<linearGradient id="SVGID_44_" gradientUnits="userSpaceOnUse" x1="-15.825" y1="122.5323" x2="342.665" y2="122.5323" gradientTransform="matrix(1 0 0 -1 0 226.17)">
					<stop  offset="0" style="stop-color:#5999F5"/>
					<stop  offset="1" style="stop-color:#87F0C6"/>
				</linearGradient>
				<path class="st43" d="M101.1,104.2c0-0.2,0-0.4,0-0.6s0-0.4,0-0.7c-0.5-19-16.2-34.1-35.3-33.6c-18.7,0.4-33.6,15.6-33.7,34.3
					h15.5c0-10.5,8.4-19,18.9-19c10.2,0,18.6,8.1,19,18.3c0,0.2,0,0.4,0,0.7s0,0.4,0,0.6c0.3,18.6,15.4,33.6,34,33.8v-15.5
					C109.5,122.2,101.4,114.2,101.1,104.2z"/>
				
					<image style="overflow:visible;opacity:0.15;enable-background:new    ;" width="51" height="51" xlink:href="FA8D0060.png"  transform="matrix(1 0 0 1 43.865 82.045)">
				</image>
				<path class="st44" d="M85.5,102.9c-0.4-10.5-9.2-18.7-19.6-18.3c-10.5,0.4-18.7,9.2-18.3,19.6s9.2,18.7,19.6,18.3
					c10-0.3,18-8.4,18.3-18.3c0-0.2,0-0.4,0-0.6C85.5,103.4,85.5,103.1,85.5,102.9z"/>
				
					<image style="overflow:visible;opacity:0.15;enable-background:new    ;" width="51" height="51" xlink:href="FA8D0061.png"  transform="matrix(1 0 0 1 97.865 82.045)">
				</image>
				<path class="st44" d="M138.9,102.9c-0.3-10.4-9.1-18.6-19.5-18.3c-10,0.3-18,8.3-18.3,18.3c0,0.2,0,0.4,0,0.7s0,0.4,0,0.6
					c0.3,10.4,9.1,18.6,19.5,18.3c10-0.3,18-8.3,18.3-18.3c0-0.2,0-0.4,0-0.6S138.9,103.1,138.9,102.9z"/>
				
					<image style="overflow:visible;opacity:0.15;enable-background:new    ;" width="51" height="51" xlink:href="FA8D0067.png"  transform="matrix(1 0 0 1 203.865 82.045)">
				</image>
				<path class="st44" d="M245.6,101.6c-1.1-10.4-10.4-18-20.8-16.9c-9.4,1-16.7,8.7-17,18.2c0,0.2,0,0.4,0,0.7s0,0.4,0,0.6
					c0.4,10.5,9.1,18.6,19.6,18.3c9.5-0.3,17.2-7.6,18.2-17c0-0.6-0.1-1.3-0.1-1.9S245.6,102.3,245.6,101.6z"/>
				<g transform="translate(118.73 12.96)">
					
						<image style="overflow:visible;enable-background:new    ;" width="51" height="51" id="image" xlink:href="FA8D0062.png"  transform="matrix(1 0 0 1 150.865 82.045)">
					</image>
				</g>
				<path class="st44" d="M192.3,102.9c-0.3-10.4-9.1-18.6-19.5-18.3c-10,0.3-18,8.3-18.3,18.3c0,0.2,0,0.4,0,0.7s0,0.4,0,0.6
					c0.3,10.4,9.1,18.6,19.5,18.3c10-0.3,18-8.3,18.3-18.3c0-0.2,0-0.4,0-0.6C192.3,103.4,192.3,103.1,192.3,102.9z"/>
				
					<image style="overflow:visible;opacity:0.15;enable-background:new    ;" width="51" height="51" xlink:href="FA8D0063.png"  transform="matrix(1 0 0 1 257.865 82.045)">
				</image>
				<path class="st44" d="M298.9,102.9c-0.2-10.5-8.9-18.8-19.3-18.5c-9.6,0.2-17.6,7.6-18.5,17.2c0,0.6,0.1,1.3,0.1,2
					c0,0.7,0,1.3-0.1,1.9c1.1,10.4,10.4,18,20.8,16.9c9.4-1,16.7-8.7,17-18.2c0-0.2,0-0.4,0-0.7S298.9,103.1,298.9,102.9z"/>
				<g transform="translate(278.73 12.96)">
					
						<image style="overflow:visible;enable-background:new    ;" width="51" height="51" id="image_2_" xlink:href="FA8D006E.png"  transform="matrix(1 0 0 1 310.865 82.045)">
					</image>
				</g>
				<path class="st44" d="M333.4,84.6c-10.2,0-18.6,8.1-18.9,18.3c0,0.2,0,0.4,0,0.7s0,0.4,0,0.6c0.4,10.5,9.1,18.6,19.6,18.3
					c10.5-0.4,18.6-9.1,18.3-19.6C352,92.7,343.6,84.6,333.4,84.6z"/>
				
					<image style="overflow:visible;opacity:0.15;enable-background:new    ;" width="37" height="37" xlink:href="FA8D006F.png"  transform="matrix(1 0 0 1 49.865 87.045)">
				</image>
				<path class="st45" d="M66,103.5L66,103.5v-15c-1.3,0-2.6,0.2-3.9,0.6c-1.3,0.3-2.5,0.8-3.6,1.5c-1.1,0.7-2.2,1.4-3.1,2.4
					c-0.9,0.9-1.7,2-2.3,3.1c-2,3.4-2.5,7.5-1.5,11.3c0.3,1.2,0.8,2.4,1.5,3.6c1.3,2.3,3.2,4.2,5.5,5.5c1.1,0.6,2.3,1.1,3.5,1.5
					c2.5,0.7,5.2,0.7,7.7,0c1.3-0.3,2.5-0.8,3.6-1.5c1.1-0.7,2.2-1.5,3.1-2.4c0.9-0.9,1.7-2,2.4-3.1c0.7-1.1,1.2-2.3,1.5-3.6
					c0.3-1.3,0.5-2.6,0.5-3.9L66,103.5z"/>
				
					<image style="overflow:visible;opacity:0.15;enable-background:new    ;" width="35" height="37" xlink:href="FA8D0064.png"  transform="matrix(1 0 0 1 102.865 87.045)">
				</image>
				<path class="st45" d="M119.6,103.5L119.6,103.5v-15c-1.3,0-2.6,0.2-3.9,0.5c-1.3,0.3-2.5,0.9-3.6,1.5c-2.3,1.3-4.2,3.2-5.5,5.5
					c-0.7,1.1-1.2,2.3-1.5,3.6c-0.7,2.5-0.7,5.2,0,7.7c0.3,1.3,0.8,2.5,1.5,3.6c0.7,1.1,1.5,2.2,2.4,3.1c0.9,0.9,2,1.7,3.1,2.4
					c1.1,0.7,2.3,1.2,3.6,1.5c2.5,0.7,5.2,0.7,7.7,0c1.3-0.3,2.5-0.8,3.6-1.5c2.3-1.3,4.2-3.2,5.5-5.5L119.6,103.5z"/>
				
					<image style="overflow:visible;opacity:0.15;enable-background:new    ;" width="30" height="37" xlink:href="FA8D0065.png"  transform="matrix(1 0 0 1 156.865 87.045)">
				</image>
				<path class="st45" d="M173.6,103.5L173.6,103.5v-15c-1.3,0-2.6,0.2-3.9,0.5c-1.3,0.3-2.5,0.9-3.6,1.5c-1.1,0.7-2.2,1.5-3.1,2.4
					c-1.9,1.9-3.2,4.2-3.9,6.7c-0.7,2.5-0.7,5.2,0,7.7c0.7,2.5,2,4.8,3.9,6.7c0.9,0.9,2,1.7,3.1,2.4c1.1,0.7,2.3,1.2,3.6,1.5
					c2.5,0.7,5.2,0.7,7.7,0c1.3-0.3,2.5-0.8,3.6-1.5L173.6,103.5z"/>
				
					<image style="overflow:visible;opacity:0.15;enable-background:new    ;" width="22" height="37" xlink:href="36610E3F.png"  transform="matrix(1 0 0 1 209.865 87.045)">
				</image>
				<path class="st45" d="M226.8,103.5v-15c-1.3,0-2.6,0.2-3.9,0.5c-1.3,0.3-2.5,0.8-3.6,1.5c-2.3,1.3-4.2,3.2-5.5,5.5
					c-0.7,1.1-1.2,2.3-1.5,3.6c-0.7,2.5-0.7,5.2,0,7.7c0.3,1.3,0.8,2.5,1.5,3.6c0.7,1.1,1.5,2.1,2.4,3.1c0.9,0.9,2,1.7,3.1,2.4
					c1.1,0.7,2.3,1.2,3.6,1.5c1.3,0.3,2.6,0.5,3.9,0.5V103.5L226.8,103.5z"/>
				
					<image style="overflow:visible;opacity:0.15;enable-background:new    ;" width="22" height="33" xlink:href="36610E3D.png"  transform="matrix(1 0 0 1 263.865 87.045)">
				</image>
				<path class="st45" d="M280.3,103.5v-15c-1.3,0-2.6,0.2-3.9,0.5c-1.3,0.3-2.5,0.8-3.6,1.5c-2.3,1.3-4.2,3.2-5.5,5.5
					c-0.7,1.1-1.2,2.3-1.5,3.6c-0.7,2.5-0.7,5.2,0,7.7c0.3,1.3,0.8,2.5,1.5,3.6c0.7,1.1,1.5,2.1,2.4,3.1L280.3,103.5L280.3,103.5z"
					/>
				
					<image style="overflow:visible;opacity:0.15;enable-background:new    ;" width="22" height="22" xlink:href="36610E3B.png"  transform="matrix(1 0 0 1 316.865 87.045)">
				</image>
				<path class="st45" d="M333.3,103.5v-15c-1.3,0-2.6,0.2-3.9,0.5c-1.3,0.3-2.5,0.8-3.6,1.5c-2.3,1.3-4.2,3.2-5.5,5.5
					c-0.7,1.1-1.2,2.3-1.5,3.6c-0.3,1.3-0.5,2.6-0.5,3.9L333.3,103.5z"/>
				<text transform="matrix(1 0 0 1 56.165 152.975)" class="st46 st47 st48">75%</text>
				<text transform="matrix(1 0 0 1 107.585 152.975)" class="st46 st47 st48">65%</text>
				<text transform="matrix(1 0 0 1 161.985 152.975)" class="st46 st47 st48">60%</text>
				<text transform="matrix(1 0 0 1 217.695 152.975)" class="st46 st47 st48">50%</text>
				<text transform="matrix(1 0 0 1 269.115 152.975)" class="st46 st47 st48">45%</text>
				<text transform="matrix(1 0 0 1 323.515 152.975)" class="st46 st47 st48">30%</text>
			</g>
		</g>
	</g>
</g>
</svg>
