<?xml version="1.0" encoding="utf-8"?>
<!-- Generator: Adobe Illustrator 22.1.0, SVG Export Plug-In . SVG Version: 6.00 Build 0)  -->
<svg version="1.1" id="Capa_1" xmlns="http://www.w3.org/2000/svg" xmlns:xlink="http://www.w3.org/1999/xlink" x="0px" y="0px"
	 viewBox="0 0 400 225" style="enable-background:new 0 0 400 225;" xml:space="preserve">
<style type="text/css">
	.st0{fill:url(#SVGID_1_);}
	.st1{fill:url(#SVGID_2_);}
	.st2{fill:url(#SVGID_3_);}
	.st3{fill:url(#SVGID_4_);}
	.st4{fill:url(#SVGID_5_);}
	.st5{fill:url(#SVGID_6_);}
	.st6{fill:#EAEAEA;}
	.st7{fill:url(#SVGID_7_);}
	.st8{fill:url(#SVGID_8_);}
	.st9{fill:none;stroke:#FFFFFF;stroke-width:0.75;stroke-miterlimit:10;}
	.st10{font-family:'OpenSans';}
	.st11{font-size:11.58px;}
	.st12{font-size:4.97px;}
	.st13{font-size:7.34px;}
	.st14{font-size:8.02px;}
	.st15{font-size:8.83px;}
</style>
<title>Recurso 2</title>
<g>
	<g id="Capa_2_1_">
		<g id="Contenido">
			<g id="Cards">
				
					<linearGradient id="SVGID_1_" gradientUnits="userSpaceOnUse" x1="203.3525" y1="149.6787" x2="248.1525" y2="149.6787" gradientTransform="matrix(1 0 0 -1 0 227)">
					<stop  offset="0" style="stop-color:#4374F1"/>
					<stop  offset="1" style="stop-color:#6BB2F8"/>
				</linearGradient>
				<path class="st0" d="M248.2,64.2c-11.9-11.9-28-18.6-44.8-18.5V109L248.2,64.2z"/>
				
					<linearGradient id="SVGID_2_" gradientUnits="userSpaceOnUse" x1="203.3524" y1="105.4987" x2="288.7745" y2="105.4987" gradientTransform="matrix(1 0 0 -1 0 227)">
					<stop  offset="0" style="stop-color:#5999F5"/>
					<stop  offset="1" style="stop-color:#87F0C6"/>
				</linearGradient>
				<path class="st1" d="M263.8,48.6L203.4,109l0,0v85.4c47.2,0,85.4-38.2,85.4-85.4C288.8,86.3,279.8,64.6,263.8,48.6z"/>
				
					<linearGradient id="SVGID_3_" gradientUnits="userSpaceOnUse" x1="117.9624" y1="160.7087" x2="203.3725" y2="160.7087" gradientTransform="matrix(1 0 0 -1 0 227)">
					<stop  offset="0" style="stop-color:#5999F5"/>
					<stop  offset="1" style="stop-color:#87F0C6"/>
				</linearGradient>
				<path class="st2" d="M143,48.6c-16,16-25,37.7-25,60.4h85.4V23.6C180.7,23.6,159,32.6,143,48.6z"/>
				
					<linearGradient id="SVGID_4_" gradientUnits="userSpaceOnUse" x1="103.8525" y1="68.2537" x2="203.3525" y2="68.2537" gradientTransform="matrix(1 0 0 -1 0 227)">
					<stop  offset="7.000000e-02" style="stop-color:#365CAD"/>
					<stop  offset="1" style="stop-color:#2B4879"/>
				</linearGradient>
				<path class="st3" d="M203.4,109h-99.5c0,55,44.5,99.5,99.5,99.5V109z"/>
				
					<radialGradient id="SVGID_5_" cx="207.5297" cy="104.9892" r="39.79" gradientTransform="matrix(1 0 0 -1 -1.405115e-03 227.0075)" gradientUnits="userSpaceOnUse">
					<stop  offset="0" style="stop-color:#000000"/>
					<stop  offset="1" style="stop-color:#FFFFFF"/>
				</radialGradient>
				<circle class="st4" cx="207.5" cy="122" r="39.8"/>
				
					<linearGradient id="SVGID_6_" gradientUnits="userSpaceOnUse" x1="160.3727" y1="112.7199" x2="239.97" y2="112.7199" gradientTransform="matrix(1 0 0 -1 6.878468e-03 227.0032)">
					<stop  offset="7.000000e-02" style="stop-color:#365CAD"/>
					<stop  offset="1" style="stop-color:#2B4879"/>
				</linearGradient>
				<circle class="st5" cx="200.2" cy="114.3" r="39.8"/>
				
					<ellipse transform="matrix(0.9737 -0.228 0.228 0.9737 -20.7817 48.6544)" class="st6" cx="200.2" cy="114.3" rx="26.7" ry="26.7"/>
				
					<linearGradient id="SVGID_7_" gradientUnits="userSpaceOnUse" x1="184.1425" y1="112.7737" x2="216.2225" y2="112.7737" gradientTransform="matrix(1 0 0 -1 0 227)">
					<stop  offset="7.000000e-02" style="stop-color:#365CAD"/>
					<stop  offset="1" style="stop-color:#2B4879"/>
				</linearGradient>
				<path class="st7" d="M200.2,98.2c-8.8,0-16,7.2-16,16s7.2,16,16,16c8.8,0,16-7.2,16-16S209,98.2,200.2,98.2z M200.2,126.3
					c-6.7,0-12.1-5.4-12.1-12.1c0-6.7,5.4-12.1,12.1-12.1s12.1,5.4,12.1,12.1c0,0,0,0,0,0C212.3,120.9,206.9,126.3,200.2,126.3
					C200.2,126.3,200.2,126.3,200.2,126.3z"/>
				
					<linearGradient id="SVGID_8_" gradientUnits="userSpaceOnUse" x1="200.6925" y1="116.8587" x2="208.1625" y2="116.8587" gradientTransform="matrix(1 0 0 -1 0 227)">
					<stop  offset="7.000000e-02" style="stop-color:#365CAD"/>
					<stop  offset="1" style="stop-color:#2B4879"/>
				</linearGradient>
				<path class="st8" d="M208.2,114c-0.2-4.1-3.4-7.4-7.5-7.7v7.7H208.2z"/>
				<polyline class="st9" points="270.3,141.5 288,159.2 324,159.2 				"/>
				<circle class="st6" cx="271.1" cy="141.9" r="3.4"/>
				<circle class="st6" cx="170.6" cy="186.9" r="3.4"/>
				<circle class="st6" cx="224.7" cy="56.9" r="3.4"/>
				<circle class="st6" cx="130.7" cy="91.6" r="3.4"/>
				<polyline class="st9" points="224.7,56.9 257.6,24.1 295.5,24.1 				"/>
				<polyline class="st9" points="130.7,91.6 102,62.8 75.3,62.8 				"/>
				<polyline class="st9" points="170.6,186.9 149.4,208.1 79.9,208.1 				"/>
				<text transform="matrix(1 0 0 1 300.5824 26.4263)" class="st6 st10 st11">15%</text>
				<text transform="matrix(1 0 0 1 301.9524 175.5463)" class="st6 st10 st11">50%</text>
				<text transform="matrix(1 0 0 1 80.6725 200.2863)" class="st6 st10 st11">45%</text>
				<text transform="matrix(1 0 0 1 76.4624 56.2263)" class="st6 st10 st11">30%</text>
				<text transform="matrix(1 0 0 1 211.2224 71.4464)" class="st6 st10 st12">DATA 04</text>
				<text transform="matrix(1 0 0 1 150.4024 71.4963)" class="st6 st10 st13">DATA 01</text>
				<text transform="matrix(1 0 0 1 136.8224 161.3363)" class="st6 st10 st14">DATA 02</text>
				<text transform="matrix(1 0 0 1 245.5124 124.8563)" class="st6 st10 st15">DATA 03</text>
			</g>
		</g>
	</g>
</g>
</svg>
