<?xml version="1.0" encoding="utf-8"?>
<!-- Generator: Adobe Illustrator 22.1.0, SVG Export Plug-In . SVG Version: 6.00 Build 0)  -->
<svg version="1.1" id="Capa_1" xmlns="http://www.w3.org/2000/svg" xmlns:xlink="http://www.w3.org/1999/xlink" x="0px" y="0px"
	 viewBox="0 0 400 225" style="enable-background:new 0 0 400 225;" xml:space="preserve">
<style type="text/css">
	.st0{fill:#5F7AB0;}
	.st1{fill:url(#SVGID_1_);}
	.st2{fill:url(#SVGID_2_);}
	.st3{fill:url(#SVGID_3_);}
	.st4{fill:url(#SVGID_4_);}
	.st5{fill:url(#SVGID_5_);}
	.st6{fill:url(#SVGID_6_);}
	.st7{fill:url(#SVGID_7_);}
	.st8{fill:url(#SVGID_8_);}
	.st9{fill:url(#SVGID_9_);}
	.st10{fill:url(#SVGID_10_);}
	.st11{fill:url(#SVGID_11_);}
	.st12{fill:url(#SVGID_12_);}
	.st13{fill:#FFFFFF;}
	.st14{font-family:'Roboto-Thin';}
	.st15{font-size:11.4235px;}
</style>
<title>Recurso 5</title>
<g id="Capa_2_1_">
	<g id="Contenido">
		<g id="Cards">
			<rect x="12.2" y="32.7" class="st0" width="7" height="139.7"/>
			<rect x="45.5" y="32.7" class="st0" width="7" height="139.7"/>
			<rect x="78.7" y="32.7" class="st0" width="7" height="139.7"/>
			<rect x="112" y="32.7" class="st0" width="7" height="139.7"/>
			<rect x="145.2" y="32.7" class="st0" width="7" height="139.7"/>
			<rect x="178.7" y="32.7" class="st0" width="7" height="139.7"/>
			<rect x="211.9" y="32.7" class="st0" width="7" height="139.7"/>
			<rect x="245.2" y="32.7" class="st0" width="7" height="139.7"/>
			<rect x="278.4" y="32.7" class="st0" width="7" height="139.7"/>
			<rect x="311.7" y="32.7" class="st0" width="7" height="139.7"/>
			<rect x="345" y="32.7" class="st0" width="7" height="139.7"/>
			<rect x="378.3" y="32.7" class="st0" width="7" height="139.7"/>
			
				<linearGradient id="SVGID_1_" gradientUnits="userSpaceOnUse" x1="15.6771" y1="46.7528" x2="15.6771" y2="126.497" gradientTransform="matrix(1 0 0 -1 0 227.38)">
				<stop  offset="0" style="stop-color:#5999F5"/>
				<stop  offset="1" style="stop-color:#87F0C6"/>
			</linearGradient>
			<rect x="12.2" y="147.5" class="st1" width="7" height="25"/>
			
				<linearGradient id="SVGID_2_" gradientUnits="userSpaceOnUse" x1="48.9358" y1="40.8534" x2="48.9358" y2="178.0578" gradientTransform="matrix(1 0 0 -1 0 227.38)">
				<stop  offset="0" style="stop-color:#5999F5"/>
				<stop  offset="1" style="stop-color:#87F0C6"/>
			</linearGradient>
			<rect x="45.5" y="87.2" class="st2" width="7" height="85.2"/>
			
				<linearGradient id="SVGID_3_" gradientUnits="userSpaceOnUse" x1="82.1863" y1="40.8534" x2="82.1863" y2="178.0578" gradientTransform="matrix(1 0 0 -1 0 227.38)">
				<stop  offset="0" style="stop-color:#5999F5"/>
				<stop  offset="1" style="stop-color:#87F0C6"/>
			</linearGradient>
			<rect x="78.7" y="50.4" class="st3" width="7" height="122.1"/>
			
				<linearGradient id="SVGID_4_" gradientUnits="userSpaceOnUse" x1="115.4451" y1="40.8534" x2="115.4451" y2="178.0578" gradientTransform="matrix(1 0 0 -1 0 227.38)">
				<stop  offset="0" style="stop-color:#5999F5"/>
				<stop  offset="1" style="stop-color:#87F0C6"/>
			</linearGradient>
			<rect x="112" y="87.2" class="st4" width="7" height="85.2"/>
			
				<linearGradient id="SVGID_5_" gradientUnits="userSpaceOnUse" x1="148.7038" y1="40.8534" x2="148.7038" y2="178.0578" gradientTransform="matrix(1 0 0 -1 0 227.38)">
				<stop  offset="0" style="stop-color:#5999F5"/>
				<stop  offset="1" style="stop-color:#87F0C6"/>
			</linearGradient>
			<rect x="145.2" y="124.4" class="st5" width="7" height="48"/>
			
				<linearGradient id="SVGID_6_" gradientUnits="userSpaceOnUse" x1="182.1501" y1="34.8968" x2="182.1501" y2="230.051" gradientTransform="matrix(1 0 0 -1 0 227.38)">
				<stop  offset="0" style="stop-color:#5999F5"/>
				<stop  offset="1" style="stop-color:#87F0C6"/>
			</linearGradient>
			<rect x="178.7" y="51.2" class="st6" width="7" height="121.2"/>
			
				<linearGradient id="SVGID_7_" gradientUnits="userSpaceOnUse" x1="215.4088" y1="44.6558" x2="215.4088" y2="144.8072" gradientTransform="matrix(1 0 0 -1 0 227.38)">
				<stop  offset="0" style="stop-color:#5999F5"/>
				<stop  offset="1" style="stop-color:#87F0C6"/>
			</linearGradient>
			<rect x="211.9" y="83.3" class="st7" width="7" height="89.1"/>
			
				<linearGradient id="SVGID_8_" gradientUnits="userSpaceOnUse" x1="248.6675" y1="45.8879" x2="248.6675" y2="134.1018" gradientTransform="matrix(1 0 0 -1 0 227.38)">
				<stop  offset="0" style="stop-color:#5999F5"/>
				<stop  offset="1" style="stop-color:#87F0C6"/>
			</linearGradient>
			<rect x="245.2" y="117.7" class="st8" width="7" height="54.8"/>
			
				<linearGradient id="SVGID_9_" gradientUnits="userSpaceOnUse" x1="281.9181" y1="48.0175" x2="281.9181" y2="115.506" gradientTransform="matrix(1 0 0 -1 0 227.38)">
				<stop  offset="0" style="stop-color:#5999F5"/>
				<stop  offset="1" style="stop-color:#87F0C6"/>
			</linearGradient>
			<rect x="278.4" y="148.8" class="st9" width="7" height="23.6"/>
			
				<linearGradient id="SVGID_10_" gradientUnits="userSpaceOnUse" x1="315.2176" y1="40.8534" x2="315.2176" y2="178.0578" gradientTransform="matrix(1 0 0 -1 0 227.38)">
				<stop  offset="0" style="stop-color:#5999F5"/>
				<stop  offset="1" style="stop-color:#87F0C6"/>
			</linearGradient>
			<rect x="311.7" y="87.2" class="st10" width="7" height="85.2"/>
			
				<linearGradient id="SVGID_11_" gradientUnits="userSpaceOnUse" x1="348.4763" y1="43.6848" x2="348.4763" y2="153.3096" gradientTransform="matrix(1 0 0 -1 0 227.38)">
				<stop  offset="0" style="stop-color:#5999F5"/>
				<stop  offset="1" style="stop-color:#87F0C6"/>
			</linearGradient>
			<rect x="345" y="74.9" class="st11" width="7" height="97.5"/>
			
				<linearGradient id="SVGID_12_" gradientUnits="userSpaceOnUse" x1="381.7269" y1="34.4807" x2="381.7269" y2="233.6576" gradientTransform="matrix(1 0 0 -1 0 227.38)">
				<stop  offset="0" style="stop-color:#5999F5"/>
				<stop  offset="1" style="stop-color:#87F0C6"/>
			</linearGradient>
			<rect x="378.3" y="48.8" class="st12" width="7" height="123.7"/>
			<text transform="matrix(1 0 0 1 11.7195 189.2114)" class="st13 st14 st15">J</text>
			<text transform="matrix(1 0 0 1 17.8718 189.2114)" class="st13 st14 st15">AN</text>
			<text transform="matrix(1 0 0 1 42.0491 189.2114)" class="st13 st14 st15">FEB</text>
			<text transform="matrix(1 0 0 1 71.6931 189.2114)" class="st13 st14 st15">M</text>
			<text transform="matrix(1 0 0 1 81.5906 189.2114)" class="st13 st14 st15">AR</text>
			<text transform="matrix(1 0 0 1 105.3025 189.2114)" class="st13 st14 st15">APR</text>
			<text transform="matrix(1 0 0 1 135.9504 189.2114)" class="st13 st14 st15">M</text>
			<text transform="matrix(1 0 0 1 145.8479 189.2114)" class="st13 st14 st15">A</text>
			<text transform="matrix(1 0 0 1 152.1389 189.2114)" class="st13 st14 st15">Y</text>
			<text transform="matrix(1 0 0 1 170.0247 189.2114)" class="st13 st14 st15">JUN</text>
			<text transform="matrix(1 0 0 1 206.2454 189.2114)" class="st13 st14 st15">JUL</text>
			<text transform="matrix(1 0 0 1 233.9963 189.2114)" class="st13 st14 st15">A</text>
			<text transform="matrix(1 0 0 1 240.72 189.2114)" class="st13 st14 st15">UG</text>
			<text transform="matrix(1 0 0 1 269.5803 189.2114)" class="st13 st14 st15">SEP</text>
			<text transform="matrix(1 0 0 1 300.8157 189.2114)" class="st13 st14 st15">O</text>
			<text transform="matrix(1 0 0 1 308.4202 189.2114)" class="st13 st14 st15">C</text>
			<text transform="matrix(1 0 0 1 315.6663 189.2114)" class="st13 st14 st15">T</text>
			<text transform="matrix(1 0 0 1 333.6829 189.2114)" class="st13 st14 st15">N</text>
			<text transform="matrix(1 0 0 1 341.7688 189.2114)" class="st13 st14 st15">O</text>
			<text transform="matrix(1 0 0 1 349.2512 189.2114)" class="st13 st14 st15">V</text>
			<text transform="matrix(1 0 0 1 366.9006 189.2114)" class="st13 st14 st15">DEC</text>
		</g>
	</g>
</g>
</svg>
