<?xml version="1.0" encoding="utf-8"?>
<!-- Generator: Adobe Illustrator 22.1.0, SVG Export Plug-In . SVG Version: 6.00 Build 0)  -->
<svg version="1.1" id="Capa_1" xmlns="http://www.w3.org/2000/svg" xmlns:xlink="http://www.w3.org/1999/xlink" x="0px" y="0px"
	 viewBox="0 0 400 225" style="enable-background:new 0 0 400 225;" xml:space="preserve">
<style type="text/css">
	.st0{fill:#5F7AB0;}
	.st1{fill:url(#SVGID_1_);}
	.st2{fill:url(#SVGID_2_);}
	.st3{fill:url(#SVGID_3_);}
	.st4{fill:#EAEAEA;}
	.st5{fill:#FFFFFF;}
	.st6{font-family:'OpenSans';}
	.st7{font-size:9.64px;}
	.st8{font-family:'OpenSans-Bold';}
	.st9{font-size:8.84px;}
</style>
<title>Recurso 1</title>
<g>
	<g id="Capa_2_1_">
		<g id="Contenido">
			<g id="Cards">
				<path class="st0" d="M395.5,15.5H395V15H27.1v0.5h-0.1v177.3h0.1v0.5H395v-0.5h0.5V15.5z M181.2,94.9h29.5v18.7h-29.5V94.9z
					 M180.2,113.5h-29.6V94.9h29.6V113.5z M211.8,94.9h29.6v18.6h-29.6V94.9z M242.5,94.9H272v18.6h-29.5L242.5,94.9z M242.5,93.8
					V75.2H272v18.6L242.5,93.8z M241.4,93.8h-29.5V75.2h29.6L241.4,93.8z M210.8,93.8h-29.5V75.2h29.5V93.8z M180.2,93.8h-29.5V75.2
					h29.6L180.2,93.8z M149.5,93.8H120V75.2h29.5L149.5,93.8z M149.5,94.9v18.6H120V94.9L149.5,94.9z M149.5,114.5v18.6H120v-18.6
					H149.5z M150.6,114.5h29.6v18.6h-29.5L150.6,114.5z M181.2,114.5h29.5v18.6h-29.5L181.2,114.5z M211.8,114.5h29.6v18.6h-29.5
					L211.8,114.5z M242.5,114.5H272v18.6h-29.5V114.5z M273.1,114.5h29.5v18.6h-29.6L273.1,114.5z M273.1,113.4V94.9h29.5v18.7
					L273.1,113.4z M273.1,93.7V75.2h29.5v18.6L273.1,93.7z M273.1,74V55.5h29.5v18.6L273.1,74z M272,74h-29.5V55.5H272L272,74z
					 M241.4,74h-29.6V55.5h29.6L241.4,74z M210.8,74h-29.6V55.5h29.5L210.8,74z M180.2,74h-29.6V55.5h29.6L180.2,74z M149.6,74H120
					V55.5h29.5L149.6,74z M119,74H89.4V55.5h29.5L119,74z M119,75.1v18.7H89.4V75.2L119,75.1z M119,94.8v18.7H89.4V94.9L119,94.8z
					 M119,114.5v18.6H89.4v-18.6L119,114.5z M119,134.2v18.6H89.4v-18.6L119,134.2z M120,134.2h29.5v18.6H120L120,134.2z
					 M150.6,134.2h29.6v18.6h-29.6L150.6,134.2z M181.3,134.2h29.5v18.6h-29.6L181.3,134.2z M211.9,134.2h29.6v18.6h-29.6
					L211.9,134.2z M242.5,134.2H272v18.6h-29.5L242.5,134.2z M273.1,134.2h29.5v18.6h-29.6L273.1,134.2z M303.7,134.2h29.5v18.6
					h-29.6L303.7,134.2z M303.7,133.1v-18.6h29.5v18.6H303.7z M303.7,113.4V94.9h29.5v18.7L303.7,113.4z M303.7,93.7V75.2h29.5v18.6
					L303.7,93.7z M303.7,74V55.5h29.5v18.6L303.7,74z M303.7,54.3V35.8h29.5v18.6L303.7,54.3z M302.7,54.3h-29.6V35.8h29.5
					L302.7,54.3z M272,54.3h-29.5V35.8H272L272,54.3z M241.4,54.3h-29.6V35.8h29.6L241.4,54.3z M210.8,54.3h-29.6V35.8h29.5
					L210.8,54.3z M180.2,54.3h-29.6V35.8h29.6L180.2,54.3z M149.6,54.3H120V35.8h29.5L149.6,54.3z M119,54.3H89.4V35.8h29.5
					L119,54.3z M88.3,54.3H58.8V35.8h29.5L88.3,54.3z M88.3,55.4v18.7H58.8V55.5L88.3,55.4z M88.3,75.1v18.7H58.8V75.2L88.3,75.1z
					 M88.3,94.8v18.7H58.8V94.9L88.3,94.8z M88.3,114.5v18.6H58.8v-18.6L88.3,114.5z M88.3,134.2v18.6H58.8v-18.6L88.3,134.2z
					 M88.3,153.9v18.6H58.8v-18.6L88.3,153.9z M89.4,153.9H119v18.6H89.4L89.4,153.9z M120,153.9h29.5v18.6H120L120,153.9z
					 M150.6,153.9h29.6v18.6h-29.6L150.6,153.9z M181.3,153.9h29.5v18.6h-29.6L181.3,153.9z M211.9,153.9h29.6v18.6h-29.6
					L211.9,153.9z M242.5,153.9H272v18.6h-29.5L242.5,153.9z M273.1,153.9h29.5v18.6h-29.6L273.1,153.9z M303.7,153.9h29.5v18.6
					h-29.6L303.7,153.9z M334.3,153.9h29.5v18.6h-29.6L334.3,153.9z M334.3,152.8v-18.6h29.5v18.6L334.3,152.8z M334.3,133.1v-18.6
					h29.5v18.6H334.3z M334.3,113.4V94.9h29.5v18.7L334.3,113.4z M334.3,93.7V75.2h29.5v18.6L334.3,93.7z M334.3,74V55.5h29.5v18.6
					L334.3,74z M334.3,54.3V35.8h29.5v18.6L334.3,54.3z M334.3,34.6V16.1h29.5v18.6L334.3,34.6z M333.3,34.6h-29.6V16.1h29.5
					L333.3,34.6z M302.7,34.6h-29.6V16.1h29.5L302.7,34.6z M272,34.6h-29.5V16.1H272L272,34.6z M241.4,34.6h-29.6V16.1h29.6
					L241.4,34.6z M210.8,34.6h-29.6V16.1h29.5L210.8,34.6z M180.2,34.6h-29.6V16.1h29.6L180.2,34.6z M149.6,34.6H120V16.1h29.5
					L149.6,34.6z M119,34.6H89.4V16.1h29.5L119,34.6z M88.3,34.6H58.8V16.1h29.5L88.3,34.6z M57.7,34.6H28.1V16.1h29.6L57.7,34.6z
					 M57.7,35.7v18.7H28.1V35.8L57.7,35.7z M57.7,55.4v18.7H28.1V55.5L57.7,55.4z M57.7,75.1v18.7H28.1V75.2L57.7,75.1z M57.7,94.8
					v18.7H28.1V94.9L57.7,94.8z M57.7,114.5v18.6H28.1v-18.6L57.7,114.5z M57.7,134.2v18.6H28.1v-18.6L57.7,134.2z M57.7,153.9v18.6
					H28.1v-18.6L57.7,153.9z M57.7,173.6v18.6H28.1v-18.6L57.7,173.6z M58.8,173.6h29.5v18.6H58.8L58.8,173.6z M89.4,173.6H119v18.6
					H89.4L89.4,173.6z M120,173.6h29.5v18.6H120L120,173.6z M150.6,173.6h29.6v18.6h-29.6L150.6,173.6z M181.3,173.6h29.5v18.6
					h-29.6L181.3,173.6z M211.9,173.6h29.6v18.6h-29.6L211.9,173.6z M242.5,173.6H272v18.6h-29.5L242.5,173.6z M273.1,173.6h29.5
					v18.6h-29.6L273.1,173.6z M303.7,173.6h29.5v18.6h-29.6L303.7,173.6z M334.3,173.6h29.5v18.6h-29.6L334.3,173.6z M364.9,173.6
					h29.6v18.6h-29.6L364.9,173.6z M364.9,172.5v-18.6h29.6v18.6L364.9,172.5z M364.9,152.8v-18.6h29.6v18.6L364.9,152.8z
					 M364.9,133.1v-18.6h29.6v18.6H364.9z M364.9,113.4V94.9h29.6v18.7L364.9,113.4z M364.9,93.7V75.2h29.6v18.6L364.9,93.7z
					 M364.9,74V55.5h29.6v18.6L364.9,74z M364.9,54.3V35.8h29.6v18.6L364.9,54.3z M364.9,34.6V16.1h29.6v18.6L364.9,34.6z"/>
				
					<linearGradient id="SVGID_1_" gradientUnits="userSpaceOnUse" x1="210.4104" y1="17.2395" x2="212.8204" y2="179.0295" gradientTransform="matrix(1 0 0 -1 0 227)">
					<stop  offset="0.18" style="stop-color:#6BB2F8;stop-opacity:0"/>
					<stop  offset="1" style="stop-color:#4374F1"/>
				</linearGradient>
				<path class="st1" d="M395,192.8v-76.9c-30.6,0-30.6,23.5-61.2,23.5s-30.6-93.3-61.3-93.3s-30.6,93.3-61.2,93.3
					s-30.6-40.6-61.2-40.6s-30.6,40.6-61.2,40.6s-30.6-33.5-61.2-33.5v86.9H395z"/>
				
					<linearGradient id="SVGID_2_" gradientUnits="userSpaceOnUse" x1="88.9525" y1="-6.513" x2="289.9325" y2="194.467" gradientTransform="matrix(1 0 0 -1 0 227)">
					<stop  offset="0" style="stop-color:#5999F5"/>
					<stop  offset="1" style="stop-color:#87F0C6"/>
				</linearGradient>
				<path class="st2" d="M395,113.8c-16,0-24.1,6.2-31.9,12.2c-7.6,5.8-14.7,11.3-29.3,11.3c-13.8,0-21.3-23-28.6-45.2
					C297.4,68.5,289.4,44,272.5,44s-24.9,24.5-32.6,48.1c-7.3,22.2-14.8,45.2-28.6,45.2c-14.3,0-21.4-9.4-28.9-19.4
					c-7.9-10.4-15.9-21.1-32.3-21.1s-24.5,10.8-32.3,21.1c-7.6,10-14.7,19.4-28.9,19.4s-21.5-7.8-29-16
					c-7.8-8.5-15.8-17.3-31.8-17.4v4.3c14.1,0.2,21.1,7.9,28.6,16c7.8,8.6,15.9,17.4,32.1,17.4s24.5-10.7,32.3-21.1
					c7.5-10,14.7-19.4,28.9-19.4s21.4,9.4,28.9,19.4c7.8,10.4,16,21.1,32.3,21.1c16.9,0,24.9-24.4,32.6-48.1
					c7.3-22.2,14.8-45.2,28.6-45.2s21.3,23,28.6,45.2c7.8,23.7,15.8,48.1,32.6,48.1c16,0,24.1-6.2,31.9-12.2
					c7.6-5.8,14.7-11.3,29.3-11.3V113.8z"/>
				
					<linearGradient id="SVGID_3_" gradientUnits="userSpaceOnUse" x1="257.81" y1="179.7695" x2="288.07" y2="179.7695" gradientTransform="matrix(1 0 0 -1 0 227)">
					<stop  offset="0" style="stop-color:#5999F5"/>
					<stop  offset="1" style="stop-color:#87F0C6"/>
				</linearGradient>
				<circle class="st3" cx="272.9" cy="47.2" r="15.1"/>
				
					<image style="overflow:visible;opacity:0.15;enable-background:new    ;" width="21" height="21" xlink:href="A55F0133.png"  transform="matrix(1 0 0 1 264.32 38.5005)">
				</image>
				<path class="st4" d="M279.9,47.2c0-3.8-3.1-6.9-6.9-6.9s-6.9,3.1-6.9,6.9s3.1,6.9,6.9,6.9c0,0,0,0,0,0
					C276.8,54.2,279.9,51.1,279.9,47.2C279.9,47.2,279.9,47.2,279.9,47.2z"/>
				<text transform="matrix(1 0 0 1 10.01 193.9705)" class="st5 st6 st7">10</text>
				<text transform="matrix(1 0 0 1 10.01 175.0505)" class="st5 st6 st7">20</text>
				<text transform="matrix(1 0 0 1 10.01 155.9205)" class="st5 st6 st7">30</text>
				<text transform="matrix(1 0 0 1 10.01 135.2205)" class="st5 st6 st7">40</text>
				<text transform="matrix(1 0 0 1 10.01 114.9305)" class="st5 st6 st7">50</text>
				<text transform="matrix(1 0 0 1 10.01 97.2105)" class="st5 st6 st7">60</text>
				<text transform="matrix(1 0 0 1 10.01 76.2705)" class="st5 st6 st7">70</text>
				<text transform="matrix(1 0 0 1 10.01 58.1305)" class="st5 st6 st7">80</text>
				<text transform="matrix(1 0 0 1 10.01 39.0005)" class="st5 st6 st7">90</text>
				<text transform="matrix(1 0 0 1 4.5 21.7605)" class="st5 st6 st7">100</text>
				<text transform="matrix(1 0 0 1 19.86 208.9105)" class="st5 st8 st9">JAN</text>
				<text transform="matrix(1 0 0 1 51.31 208.9105)" class="st5 st8 st9">FEB</text>
				<text transform="matrix(1 0 0 1 80.29 208.9105)" class="st5 st8 st9">MAR</text>
				<text transform="matrix(1 0 0 1 113.56 208.9105)" class="st5 st8 st9">APR</text>
				<text transform="matrix(1 0 0 1 141.04 208.9105)" class="st5 st8 st9">MAY</text>
				<text transform="matrix(1 0 0 1 174.68 208.9105)" class="st5 st8 st9">JUN</text>
				<text transform="matrix(1 0 0 1 205.68 208.9105)" class="st5 st8 st9">JUL</text>
				<text transform="matrix(1 0 0 1 231.13 208.9105)" class="st5 st8 st9">AUG</text>
				<text transform="matrix(1 0 0 1 263.83 208.9105)" class="st5 st8 st9">SEP</text>
				<text transform="matrix(1 0 0 1 294.51 208.9105)" class="st5 st8 st9">OCT</text>
				<text transform="matrix(1 0 0 1 324.37 208.9105)" class="st5 st8 st9">NOV</text>
				<text transform="matrix(1 0 0 1 357.03 208.9105)" class="st5 st8 st9">DEC</text>
			</g>
		</g>
	</g>
</g>
</svg>
