<?xml version="1.0" encoding="utf-8"?>
<!-- Generator: Adobe Illustrator 22.1.0, SVG Export Plug-In . SVG Version: 6.00 Build 0)  -->
<svg version="1.1" id="Capa_1" xmlns="http://www.w3.org/2000/svg" xmlns:xlink="http://www.w3.org/1999/xlink" x="0px" y="0px"
	 viewBox="0 0 400 225" style="enable-background:new 0 0 400 225;" xml:space="preserve">
<style type="text/css">
	.st0{fill:url(#SVGID_1_);}
	.st1{fill:url(#SVGID_2_);}
	.st2{fill:#FFFFFF;}
	.st3{font-family:'Roboto-Thin';}
	.st4{font-size:15.9841px;}
	.st5{fill:url(#SVGID_3_);}
	.st6{fill:url(#SVGID_4_);}
	.st7{fill:url(#SVGID_5_);}
	.st8{fill:url(#SVGID_6_);}
	.st9{fill:url(#SVGID_7_);}
	.st10{fill:url(#SVGID_8_);}
	.st11{fill:url(#SVGID_9_);}
	.st12{fill:url(#SVGID_10_);}
	.st13{fill:url(#SVGID_11_);}
	.st14{fill:url(#SVGID_12_);}
	.st15{fill:url(#SVGID_13_);}
	.st16{fill:#EAEAEA;}
	.st17{font-family:'OpenSans-Bold';}
	.st18{font-size:11.7711px;}
</style>
<title>Recurso 3</title>
<g id="Capa_2_1_">
	<g id="Contenido">
		<g id="Cards">
			
				<linearGradient id="SVGID_1_" gradientUnits="userSpaceOnUse" x1="61.2509" y1="43.9219" x2="61.2509" y2="200.3832" gradientTransform="matrix(1 0 0 -1 0 227.44)">
				<stop  offset="7.000000e-02" style="stop-color:#365CAD"/>
				<stop  offset="1" style="stop-color:#2B4879"/>
			</linearGradient>
			<rect x="43.6" y="22.5" class="st0" width="35.3" height="170.4"/>
			
				<linearGradient id="SVGID_2_" gradientUnits="userSpaceOnUse" x1="61.2509" y1="17.9021" x2="61.2509" y2="125.9659" gradientTransform="matrix(1 0 0 -1 0 227.44)">
				<stop  offset="0" style="stop-color:#5999F5"/>
				<stop  offset="1" style="stop-color:#87F0C6"/>
			</linearGradient>
			<rect x="43.6" y="168" class="st1" width="35.3" height="24.9"/>
			<text transform="matrix(1 0 0 1 45.262 210.6685)" class="st2 st3 st4">2015</text>
			
				<linearGradient id="SVGID_3_" gradientUnits="userSpaceOnUse" x1="116.7042" y1="43.9219" x2="116.7042" y2="200.3832" gradientTransform="matrix(1 0 0 -1 0 227.44)">
				<stop  offset="7.000000e-02" style="stop-color:#365CAD"/>
				<stop  offset="1" style="stop-color:#2B4879"/>
			</linearGradient>
			<rect x="99.1" y="22.5" class="st5" width="35.3" height="170.4"/>
			
				<linearGradient id="SVGID_4_" gradientUnits="userSpaceOnUse" x1="116.7042" y1="17.9021" x2="116.7042" y2="125.9659" gradientTransform="matrix(1 0 0 -1 0 227.44)">
				<stop  offset="0" style="stop-color:#5999F5"/>
				<stop  offset="1" style="stop-color:#87F0C6"/>
			</linearGradient>
			<rect x="99.1" y="148.9" class="st6" width="35.3" height="44"/>
			<text transform="matrix(1 0 0 1 101.7308 210.6685)" class="st2 st3 st4">2016</text>
			
				<linearGradient id="SVGID_5_" gradientUnits="userSpaceOnUse" x1="172.169" y1="43.9219" x2="172.169" y2="200.3832" gradientTransform="matrix(1 0 0 -1 0 227.44)">
				<stop  offset="7.000000e-02" style="stop-color:#365CAD"/>
				<stop  offset="1" style="stop-color:#2B4879"/>
			</linearGradient>
			<rect x="154.5" y="22.5" class="st7" width="35.3" height="170.4"/>
			
				<linearGradient id="SVGID_6_" gradientUnits="userSpaceOnUse" x1="172.169" y1="17.9021" x2="172.169" y2="125.9659" gradientTransform="matrix(1 0 0 -1 0 227.44)">
				<stop  offset="0" style="stop-color:#5999F5"/>
				<stop  offset="1" style="stop-color:#87F0C6"/>
			</linearGradient>
			<rect x="154.5" y="131.4" class="st8" width="35.3" height="61.5"/>
			<text transform="matrix(1 0 0 1 156.8304 210.6685)" class="st2 st3 st4">2017</text>
			
				<linearGradient id="SVGID_7_" gradientUnits="userSpaceOnUse" x1="227.6223" y1="43.9219" x2="227.6223" y2="200.3832" gradientTransform="matrix(1 0 0 -1 0 227.44)">
				<stop  offset="7.000000e-02" style="stop-color:#365CAD"/>
				<stop  offset="1" style="stop-color:#2B4879"/>
			</linearGradient>
			<rect x="210" y="22.5" class="st9" width="35.3" height="170.4"/>
			
				<linearGradient id="SVGID_8_" gradientUnits="userSpaceOnUse" x1="227.6223" y1="17.9021" x2="227.6223" y2="125.9659" gradientTransform="matrix(1 0 0 -1 0 227.44)">
				<stop  offset="0" style="stop-color:#5999F5"/>
				<stop  offset="1" style="stop-color:#87F0C6"/>
			</linearGradient>
			<rect x="210" y="108.1" class="st10" width="35.3" height="84.8"/>
			<text transform="matrix(1 0 0 1 212.4437 210.6685)" class="st2 st3 st4">2018</text>
			
				<linearGradient id="SVGID_9_" gradientUnits="userSpaceOnUse" x1="283.087" y1="43.9219" x2="283.087" y2="200.3832" gradientTransform="matrix(1 0 0 -1 0 227.44)">
				<stop  offset="7.000000e-02" style="stop-color:#365CAD"/>
				<stop  offset="1" style="stop-color:#2B4879"/>
			</linearGradient>
			<rect x="265.5" y="22.5" class="st11" width="35.3" height="170.4"/>
			
				<linearGradient id="SVGID_10_" gradientUnits="userSpaceOnUse" x1="283.087" y1="17.9021" x2="283.087" y2="125.9659" gradientTransform="matrix(1 0 0 -1 0 227.44)">
				<stop  offset="0" style="stop-color:#5999F5"/>
				<stop  offset="1" style="stop-color:#87F0C6"/>
			</linearGradient>
			<rect x="265.5" y="79.9" class="st12" width="35.3" height="113"/>
			<text transform="matrix(1 0 0 1 269.2444 210.6685)" class="st2 st3 st4">2019</text>
			
				<linearGradient id="SVGID_11_" gradientUnits="userSpaceOnUse" x1="339.5222" y1="43.9219" x2="339.5222" y2="200.3832" gradientTransform="matrix(1 0 0 -1 0 227.44)">
				<stop  offset="7.000000e-02" style="stop-color:#365CAD"/>
				<stop  offset="1" style="stop-color:#2B4879"/>
			</linearGradient>
			<rect x="321.9" y="22.5" class="st13" width="35.3" height="170.4"/>
			
				<linearGradient id="SVGID_12_" gradientUnits="userSpaceOnUse" x1="339.5222" y1="17.9021" x2="339.5222" y2="125.9659" gradientTransform="matrix(1 0 0 -1 0 227.44)">
				<stop  offset="0" style="stop-color:#5999F5"/>
				<stop  offset="1" style="stop-color:#87F0C6"/>
			</linearGradient>
			<rect x="321.9" y="57.4" class="st14" width="35.3" height="135.5"/>
			<text transform="matrix(1 0 0 1 325.1888 210.6685)" class="st2 st3 st4">2020</text>
			
				<linearGradient id="SVGID_13_" gradientUnits="userSpaceOnUse" x1="46.0951" y1="85.2167" x2="385.0603" y2="230.923" gradientTransform="matrix(1 0 0 -1 0 227.44)">
				<stop  offset="0" style="stop-color:#5999F5"/>
				<stop  offset="1" style="stop-color:#87F0C6"/>
			</linearGradient>
			<polygon class="st15" points="322.5,42.6 344.2,14.5 308.9,10 314,22.1 39.8,136 43.3,144.4 317.5,30.5 			"/>
			<text transform="matrix(1 0 0 1 327.1634 131.3306)" class="st16 st17 st18">75%</text>
			<text transform="matrix(1 0 0 1 271.8929 144.5288)" class="st16 st17 st18">65%</text>
			<text transform="matrix(1 0 0 1 215.6741 158.7202)" class="st16 st17 st18">55%</text>
			<text transform="matrix(1 0 0 1 160.3011 170.4575)" class="st16 st17 st18">35%</text>
			<text transform="matrix(1 0 0 1 106.7435 177.7866)" class="st16 st17 st18">25%</text>
			<text transform="matrix(1 0 0 1 50.1595 186.1099)" class="st16 st17 st18">15%</text>
		</g>
	</g>
</g>
</svg>
